<?xml version="1.0" encoding="UTF-8"?>
<svg width="210.06" height="46.665" version="1.1" viewBox="0 0 55.579 12.347" xmlns="http://www.w3.org/2000/svg" xmlns:cc="http://creativecommons.org/ns#" xmlns:dc="http://purl.org/dc/elements/1.1/" xmlns:rdf="http://www.w3.org/1999/02/22-rdf-syntax-ns#">
 <title>Prahok Co. logo</title>
 <metadata>
  <rdf:RDF>
   <cc:Work rdf:about="">
    <dc:format>image/svg+xml</dc:format>
    <dc:type rdf:resource="http://purl.org/dc/dcmitype/StillImage"/>
    <dc:title>Prahok Co. logo</dc:title>
   </cc:Work>
  </rdf:RDF>
 </metadata>
 <g transform="translate(-19.208 -18.769)">
  <path transform="matrix(.26458 0 0 .26458 19.208 18.769)" d="m0 0v45.695h8v-17.535h12.16c13.056 0.064 15.553-8.3836 15.553-14.016 0-5.696-2.4968-14.145-15.553-14.145zm94.586 0v45.695h7.2949v-19.52c0-4.864 3.136-8.7031 8-8.7031 4.288 0 6.3368 2.2398 6.4648 7.4238v20.799h7.2969v-22.719c0-7.424-4.5449-11.264-11.713-11.264-4.352 0-8.1279 2.2401-9.9199 5.248h-0.12891v-16.961zm67.77 0v45.695h7.2969v-11.84l4.3516-4.2227 10.111 16.062h8.8965l-13.889-20.928 12.672-12.16h-8.959l-13.184 13.377v-25.984zm-154.36 6.5273h11.84c4.224 0 7.873 1.5367 7.873 7.5527 0 5.76-4.416 7.5527-8 7.5527h-11.713zm46.664 5.1855c-4.48 0-8.8321 3.7749-9.6641 7.2949h-0.12891v-6.4004h-6.8477v33.088h7.2969v-15.744c0-7.296 3.967-11.328 8.959-11.328 1.024 0 2.1127 0.19231 3.1367 0.32031v-7.0391c-0.64-0.064-1.088-0.19141-2.752-0.19141zm20.182 0c-7.296 0-14.527 2.4958-15.039 11.008h7.2949c0.32-3.584 3.2009-5.248 7.2969-5.248 2.944 0 6.8477 0.70252 6.8477 4.4785 0 4.288-4.6719 3.7119-9.9199 4.6719-6.144 0.704-12.736 2.0487-12.736 10.305 0 6.464 5.3761 9.6641 11.328 9.6641 3.904 0 8.5751-1.2153 11.455-4.0312 0.576 3.008 2.6888 4.0312 5.6328 4.0312 1.216 0 3.5194-0.44803 4.6074-0.83203v-5.0566c-0.768 0.128-1.343 0.12891-1.791 0.12891-1.344 0-1.7285-0.7041-1.7285-2.4961v-17.023c0-6.976-6.7841-9.5996-13.248-9.5996zm68.043 0c-10.624 0-16.703 7.2943-16.703 17.406 0 10.176 6.0791 17.473 16.703 17.473s16.705-7.2967 16.705-17.473c0-10.112-6.0811-17.406-16.705-17.406zm0 5.7598c6.528 0 9.4082 5.9505 9.4082 11.646 0 5.76-2.8802 11.713-9.4082 11.713s-9.4062-5.9529-9.4062-11.713c0-5.696 2.8783-11.646 9.4062-11.646zm-62.092 11.646v5.4414c0 4.608-4.9914 6.2715-8.1914 6.2715-2.56 0-6.7188-0.96062-6.7188-4.2246 0-3.84 2.8152-4.9919 5.9512-5.5039 3.2-0.576 6.719-0.51238 8.959-1.9844z"/>
  <rect x="69.376" y="25.705" width="5.2786" height="5.2786" fill="#f60" stroke="#fff" stroke-width=".26458"/>
 </g>
</svg>
