<?xml version="1.0" encoding="utf-8"?>
<svg id="master-artboard" viewBox="0 0 1400 980" version="1.1" xmlns="http://www.w3.org/2000/svg" x="0px" y="0px" style="enable-background:new 0 0 336 235.2;" width="1400px" height="980px"><rect id="ee-background" x="0" y="0" width="1400" height="980" style="fill: white; fill-opacity: 0; pointer-events: none;"/><defs><style id="ee-google-fonts">@import url(https://fonts.googleapis.com/css?family=Audiowide:400);</style></defs>





















































































































































<metadata>
Created by potrace 1.16, written by Peter Selinger 2001-2019
</metadata><path d="M280 2506 l0 -576 70 0 70 0 0 224 0 224 143 4 c135 3 145 5 195 33&#10;38 20 61 42 80 74 27 46 27 48 27 241 0 189 -1 196 -25 240 -19 34 -39 51 -84&#10;75 l-60 30 -208 3 -208 4 0 -576z m389 443 c53 -18 61 -49 61 -219 0 -176 -8&#10;-203 -68 -220 -20 -6 -82 -10 -137 -8 l-100 3 -3 215 c-1 118 0 220 2 227 7&#10;17 199 18 245 2z" transform="matrix(0.2800000011920929, 0, 0, -0.2800000011920929, 63.63735198974615, 959.5772705078125)"/><path d="M1140 2506 l0 -576 70 0 70 0 0 240 0 241 82 -3 82 -3 106 -237 105&#10;-238 77 0 77 0 -14 33 c-8 17 -59 131 -113 252 l-100 219 48 28 c76 43 94 91&#10;98 254 5 165 -7 228 -53 282 -59 68 -90 76 -327 80 l-208 4 0 -576z m417 421&#10;l28 -27 0 -155 0 -155 -28 -27 c-27 -27 -31 -28 -152 -31 l-125 -4 0 217 0&#10;217 125 -3 c121 -4 125 -5 152 -32z" transform="matrix(0.2800000011920929, 0, 0, -0.2800000011920929, 63.63735198974615, 959.5772705078125)"/><path d="M2265 3068 c-6 -17 -275 -1124 -275 -1132 0 -4 32 -6 72 -4 l72 3 30&#10;140 31 140 162 3 c162 2 163 2 168 -20 3 -13 17 -77 31 -143 14 -65 26 -121&#10;28 -123 2 -1 35 -2 73 0 l70 3 -136 572 -136 573 -93 0 c-65 0 -94 -4 -97 -12z&#10;m156 -390 c32 -150 62 -285 65 -300 l6 -28 -134 0 -134 0 65 304 c36 168 67&#10;303 69 301 2 -2 30 -126 63 -277z" transform="matrix(0.2800000011920929, 0, 0, -0.2800000011920929, 63.63735198974615, 959.5772705078125)"/><path d="M270 1145 l0 -575 70 0 70 0 0 265 0 265 175 0 175 0 0 -265 0 -265&#10;70 0 70 0 0 575 0 575 -70 0 -70 0 -2 -247 -3 -248 -170 0 -170 0 -3 248 -2&#10;247 -70 0 -70 0 0 -575z" transform="matrix(0.2800000011920929, 0, 0, -0.2800000011920929, 63.63735198974615, 959.5772705078125)"/><path d="M1322 1702 c-66 -21 -116 -61 -145 -115 -22 -42 -22 -46 -22 -442 0&#10;-390 1 -401 22 -440 28 -52 57 -79 118 -107 44 -20 65 -23 185 -23 116 0 141&#10;3 180 21 85 40 123 93 139 195 14 83 14 625 0 709 -18 116 -74 179 -181 207&#10;-73 18 -230 16 -296 -5z m262 -116 c18 -7 42 -26 54 -41 22 -27 22 -33 22&#10;-401 l0 -372 -25 -31 c-14 -16 -42 -35 -62 -42 -52 -17 -191 -8 -226 16 -56&#10;37 -57 42 -57 432 0 341 1 360 20 391 11 18 35 39 53 47 42 18 178 19 221 1z" transform="matrix(0.2800000011920929, 0, 0, -0.2800000011920929, 63.63735198974615, 959.5772705078125)"/><path d="M2055 1145 l0 -575 73 0 72 0 0 211 0 210 31 46 31 45 132 -256 131&#10;-256 83 0 84 0 -20 33 c-19 31 -259 481 -300 563 l-21 41 159 256 158 257 -77&#10;0 -78 0 -154 -247 -154 -248 -3 248 -2 247 -73 0 -72 0 0 -575z" transform="matrix(0.2800000011920929, 0, 0, -0.2800000011920929, 63.63735198974615, 959.5772705078125)"/><path d="M2770 790 l0 -220 265 0 265 0 0 220 0 220 -265 0 -265 0 0 -220z&#10;m220 135 c0 -23 -4 -25 -44 -25 -53 0 -56 -6 -56 -100 0 -94 3 -100 56 -100&#10;40 0 44 -2 44 -25 0 -24 -3 -25 -54 -25 -38 0 -61 6 -77 19 -23 18 -24 26 -24&#10;131 0 105 1 113 24 131 16 13 39 19 77 19 51 0 54 -1 54 -25z m204 4 c25 -20&#10;26 -24 26 -129 0 -105 -1 -109 -26 -129 -36 -28 -106 -29 -134 -1 -18 18 -20&#10;33 -20 130 0 97 2 112 20 130 28 28 98 27 134 -1z" transform="matrix(0.2800000011920929, 0, 0, -0.2800000011920929, 63.63735198974615, 959.5772705078125)" style="stroke: rgb(255, 255, 3); fill: rgb(255, 8, 0);"/><path d="M3105 887 c-3 -7 -5 -52 -3 -98 3 -82 4 -84 28 -84 25 0 25 0 25 95&#10;0 91 -1 95 -23 98 -12 2 -24 -3 -27 -11z" transform="matrix(0.2800000011920929, 0, 0, -0.2800000011920929, 63.63735198974615, 959.5772705078125)" style="fill: rgb(255, 9, 0);"/></svg>